<?xml version="1.0" standalone="no"?><!DOCTYPE svg PUBLIC "-//W3C//DTD SVG 1.1//EN" "http://www.w3.org/Graphics/SVG/1.1/DTD/svg11.dtd"><svg t="1614582476420" class="icon" viewBox="0 0 1024 1024" version="1.1" xmlns="http://www.w3.org/2000/svg" p-id="2907" xmlns:xlink="http://www.w3.org/1999/xlink" width="200" height="200"><defs><style type="text/css"></style></defs><path d="M270.92580219 237.71428531a34.28571469 34.28571469 0 0 0-34.28571469 34.28571469 34.28571469 34.28571469 0 0 0 34.28571469 34.28571469h342.85714219a34.28571469 34.28571469 0 0 0 34.28571468-34.28571469 34.28571469 34.28571469 0 0 0-34.28571468-34.28571469zM509.85437281 478.78571469a34.28571469 34.28571469 0 0 0-34.28571375-34.28571469H270.92580219a34.28571469 34.28571469 0 0 0-34.28571469 34.28571469 34.28571469 34.28571469 0 0 0 34.28571469 34.28571375h204.64285687a34.28571469 34.28571469 0 0 0 34.28571375-34.28571375zM408.06865906 649.14285688H270.92580219a34.28571469 34.28571469 0 0 0-34.28571469 34.28571468 34.28571469 34.28571469 0 0 0 34.28571469 34.28571375h137.14285687a34.28571469 34.28571469 0 0 0 34.28571375-34.28571375 34.28571469 34.28571469 0 0 0-34.28571375-34.28571469z" p-id="2908" fill="#e6e6e6"></path><path d="M376.99723063 923.42857156H204.49723062a68.64642844 68.64642844 0 0 1-68.57142843-68.57142844V169.14285688a68.64642844 68.64642844 0 0 1 68.57142844-68.57142844h512.14285687a68.64642844 68.64642844 0 0 1 68.57142844 68.57142844v274.51071468a34.28571469 34.28571469 0 1 0 68.57142844 0V169.14285688A137.29285688 137.29285688 0 0 0 716.6400875 32H204.49723062A137.29285688 137.29285688 0 0 0 67.35437281 169.14285688v685.71428625a137.29285688 137.29285688 0 0 0 137.14285781 137.14285687h172.5a34.28571469 34.28571469 0 0 0 0-68.57142844z" p-id="2909" fill="#e6e6e6"></path><path d="M946.60080219 631.93571469L836.70437281 522.03928531a34.28571469 34.28571469 0 0 0-48.49285687 0L486.67937281 823.57142844a34.28571469 34.28571469 0 0 0-10.03928531 24.24642844V957.71428531a34.28571469 34.28571469 0 0 0 34.28571469 34.28571469h109.89642844a34.28571469 34.28571469 0 0 0 24.24642843-10.03928531L946.60080219 680.42857156a34.28571469 34.28571469 0 0 0 0-48.49285687zM606.62580219 923.42857156H545.21151594v-61.41428625l267.24642844-267.24642844 61.41428625 61.41428625z" p-id="2910" fill="#e6e6e6"></path></svg>