<?xml version="1.0" standalone="no"?><!DOCTYPE svg PUBLIC "-//W3C//DTD SVG 1.1//EN" "http://www.w3.org/Graphics/SVG/1.1/DTD/svg11.dtd"><svg t="1614596375437" class="icon" viewBox="0 0 1024 1024" version="1.1" xmlns="http://www.w3.org/2000/svg" p-id="2116" xmlns:xlink="http://www.w3.org/1999/xlink" width="200" height="200"><defs><style type="text/css"></style></defs><path d="M910.474 295.703v-2.978l-0.802-1.144-0.23-1.26-0.457-0.459c-0.573-1.602-1.26-3.205-2.176-4.808-0.344-0.574-0.573-1.147-0.916-1.603l-0.114-0.229c-0.573-0.917-1.145-1.833-1.717-2.634v-0.916L624.9 14.366v-1.03l-4.694-3.435-1.26-1.26-0.459-0.458L617 6.695h-0.802c-1.03-0.688-2.061-1.26-3.092-1.946a16.915 16.915 0 0 0-2.06-1.03c-2.978-1.375-5.725-2.291-8.703-2.864l-0.915-0.23h-0.802c-1.947-0.342-3.779-0.457-5.61-0.457H193.679c-44.542 0-80.725 34.81-80.725 77.634v868.167c0 42.825 36.184 77.748 80.725 77.748h636.642c44.542 0 80.725-34.81 80.725-77.748V301.198c-0.115-1.832-0.23-3.663-0.573-5.495zM631.884 120.97L784.06 265.587H631.885V120.97z m188.4 814.751c0 3.436-12.26 6.993-23.168 6.993H211.343c-17.664 0-17.664-25.408-17.664-45.92v-792.85c0-30.866 17.372-30.866 37.324-30.866 13.302 0 118.245-0.257 314.83-0.773v224.837c0 19.694 28.915 39.896 49.183 39.896h225.27v598.684z" p-id="2117"></path><path d="M711.694 724.404H312.307c-19.581 0-34.605 20.096-34.605 40.364 0 20.266 14.91 40.362 34.605 40.362h399.386c19.581 0 35.677-20.096 35.677-40.362-0.114-20.268-15.983-40.364-35.677-40.364z m0-153.778H312.307c-19.581 0-35.527 21.256-35.527 41.524s15.833 41.524 35.527 41.524h399.386c19.581 0 35.947-21.256 35.947-41.524-0.115-20.268-16.253-41.524-35.947-41.524z m-435.6-121.572c0 20.266 16.517 41.305 36.212 41.305h399.503c19.581 0 34.333-21.039 34.333-41.305 0-19.281-16.061-39.774-34.333-41.271H312.307c-19.694 0-36.211 21.003-36.211 41.271z" p-id="2118"></path></svg>