<?xml version="1.0" standalone="no"?><!DOCTYPE svg PUBLIC "-//W3C//DTD SVG 1.1//EN" "http://www.w3.org/Graphics/SVG/1.1/DTD/svg11.dtd"><svg t="1615121185310" class="icon" viewBox="0 0 1567 1024" version="1.1" xmlns="http://www.w3.org/2000/svg" p-id="2259" xmlns:xlink="http://www.w3.org/1999/xlink" width="306.0546875" height="200"><defs><style type="text/css"></style></defs><path d="M156.672 699.904h20.992c5.632 0 10.24 4.608 10.24 10.24s-4.608 10.24-10.24 10.24h-20.992v20.992c0 5.632-4.608 10.24-10.24 10.24s-10.24-4.608-10.24-10.24v-20.992h-20.992c-5.632 0-10.24-4.608-10.24-10.24s4.608-10.24 10.24-10.24h20.992v-20.992c0-5.632 4.608-10.24 10.24-10.24s10.24 4.608 10.24 10.24v20.992z m1378.816-83.456v-20.992c0-5.632-4.608-10.24-10.24-10.24s-10.24 4.608-10.24 10.24v20.992h-20.992c-5.632 0-10.24 4.608-10.24 10.24s4.608 10.24 10.24 10.24h20.992v20.992c0 5.632 4.608 10.24 10.24 10.24s10.24-4.608 10.24-10.24v-20.992h20.992c5.632 0 10.24-4.608 10.24-10.24s-4.608-10.24-10.24-10.24h-20.992z m-758.784 344.576H250.368c-11.264 0-20.992-9.216-20.992-20.992s9.216-20.992 20.992-20.992h94.72c-7.168-12.8-11.264-27.136-11.264-41.472V271.36c0-46.08 37.376-83.456 83.456-83.456h62.464v-20.992c0-46.08 37.376-83.456 83.456-83.456h501.248c46.08 0 83.456 37.376 83.456 83.456V773.12c0 15.36-4.096 29.184-11.264 41.472h115.712c11.776 0 20.992 9.216 20.992 20.992s-9.216 20.992-20.992 20.992h-250.88v20.992c0 15.36-4.096 29.184-11.264 41.472h11.264c11.264 0 20.992 9.216 20.992 20.992s-9.216 20.992-20.992 20.992h-110.08c9.728 15.872 7.68 36.864-6.656 50.688-16.384 16.384-42.496 16.384-58.88 0l-49.152-50.688z m76.288-41.984h66.56c23.04 0 41.472-18.432 41.472-41.984V270.336c0-22.528-17.92-40.448-40.448-40.448H416.256c-22.016 0-40.448 18.432-40.448 40.448v606.72c0 23.04 18.944 41.984 41.472 41.984h316.928l-10.752-10.752c-10.752-10.752-14.848-26.112-10.752-40.448l-19.968-19.968c-65.024 48.128-156.672 34.816-204.8-30.208-43.52-58.368-37.376-139.264 13.824-190.464 56.832-57.344 149.504-57.344 206.848-0.512 51.712 51.2 57.344 133.12 13.824 191.488l19.968 19.968c14.336-4.096 29.696 0 40.448 10.752l70.144 70.144z m149.504-104.448h62.976c23.04 0 41.472-18.944 41.472-41.984V166.912c0-23.04-18.432-41.984-41.472-41.984h-501.76c-23.04 0-41.472 18.944-41.472 41.984v20.992h396.8c46.08 0 83.456 37.376 83.456 83.456v543.232zM266.24 47.104h31.232c8.704 0 15.872 7.168 15.872 15.872 0 8.704-7.168 15.872-15.872 15.872H266.24v31.232c0 8.704-7.168 15.872-15.872 15.872-8.704 0-15.872-7.168-15.872-15.872v-31.232h-31.232c-8.704 0-15.872-6.656-15.872-15.36s7.168-15.872 15.872-15.872h31.232V15.872C235.008 7.168 242.176 0 250.88 0c8.192 0 15.36 7.168 15.36 15.872v31.232zM20.992 940.032c0-11.776 9.216-20.992 20.992-20.992h125.44c11.264 0 20.992 9.216 20.992 20.992s-9.216 20.992-20.992 20.992H41.472c-11.264 0-20.48-9.216-20.48-20.992z m658.432-135.168c40.96-40.96 40.96-107.008 0-147.968s-107.008-40.96-147.968 0-40.96 107.008 0 147.968c41.472 40.96 107.52 40.96 147.968 0z m-219.648-491.52c0-11.776 9.216-20.992 20.992-20.992h229.888c11.776 0 20.992 9.216 20.992 20.992s-9.216 20.992-20.992 20.992h-230.4c-11.264 0-20.48-9.216-20.48-20.992z m0 104.448c0-11.776 9.216-20.992 20.992-20.992h334.336c11.264 0 20.992 9.216 20.992 20.992s-9.216 20.992-20.992 20.992H480.256c-11.264 0-20.48-9.216-20.48-20.992z m0 104.448c0-11.776 9.216-20.992 20.992-20.992h146.432c11.264 0 20.992 9.216 20.992 20.992s-9.216 20.992-20.992 20.992H480.256c-11.264 0-20.48-9.216-20.48-20.992zM62.464 396.8C28.16 396.8 0 368.64 0 334.336S28.16 271.36 62.464 271.36c34.816 0 62.464 28.16 62.464 62.464S97.28 396.8 62.464 396.8z m0-31.232c17.408 0 31.232-13.824 31.232-31.232 0-17.408-13.824-31.232-31.232-31.232s-31.232 13.824-31.232 31.232c0 17.408 14.336 31.232 31.232 31.232z m1295.36-94.208c-34.816 0-62.464-28.16-62.464-62.464 0-34.816 28.16-62.464 62.464-62.464 34.816 0 62.464 28.16 62.464 62.464 0 34.816-28.16 62.464-62.464 62.464z m0-31.232c17.408 0 31.232-13.824 31.232-31.232 0-17.408-13.824-31.232-31.232-31.232-17.408 0-31.232 13.824-31.232 31.232 0 17.408 13.824 31.232 31.232 31.232z" p-id="2260"></path></svg>