<?xml version="1.0" standalone="no"?><!DOCTYPE svg PUBLIC "-//W3C//DTD SVG 1.1//EN" "http://www.w3.org/Graphics/SVG/1.1/DTD/svg11.dtd"><svg t="1609653724291" class="icon" viewBox="0 0 1024 1024" version="1.1" xmlns="http://www.w3.org/2000/svg" p-id="791" xmlns:xlink="http://www.w3.org/1999/xlink" width="200" height="200"><defs><style type="text/css"></style></defs><path d="M644.896 514.656c-4.647-3.465-7.707-5.211-10.102-7.614-111.882-111.777-223.68-223.642-335.584-335.395-11.498-11.482-17.601-24.432-14.06-40.893 6.549-30.44400001 42.724-43.056 66.702-23.207 2.63799999 2.179 5.006 4.691 7.43 7.11599999 122.147 122.131 244.291 244.268 366.434 366.41100001 22.218 22.218 22.236 44.944 0.033 67.143-122.749 122.755-245.548 245.451-368.185 368.31599999-12.166 12.191-26.06200001 17.589-42.734 13.32700001-28.957-7.395-40.247-42.511-21.462-65.82699999 2.323-2.881 5.046-5.457 7.669-8.08300001 111.214-111.228 222.435-222.459 333.706-333.634 2.407-2.404 5.46900001-4.166 10.148-7.66z" p-id="792"></path></svg>